<?xml version="1.0" encoding="UTF-8"?>
<svg width="100px" height="100px" viewBox="0 0 100 100" version="1.1" xmlns="http://www.w3.org/2000/svg" xmlns:xlink="http://www.w3.org/1999/xlink">
    <!-- Generator: Sketch 52.5 (67469) - http://www.bohemiancoding.com/sketch -->
    <title>logo / izidee signe couleurs@1x</title>
    <desc>Created with Sketch.</desc>
    <defs>
        <linearGradient x1="100%" y1="0%" x2="0%" y2="100%" id="linearGradient-1">
            <stop stop-color="#89E0E3" offset="0%"></stop>
            <stop stop-color="#51BDC2" offset="100%"></stop>
        </linearGradient>
    </defs>
    <g id="logo-/-izidee-signe-couleurs" stroke="none" stroke-width="1" fill="none" fill-rule="evenodd">
        <g id="Page-1" transform="translate(6.000000, 0.000000)" fill="url(#linearGradient-1)">
            <g id="Group">
                <path d="M11.0514096,18.0450331 C11.2463955,18.1130558 11.5140397,18.2372753 11.8469631,18.4119205 C11.7292715,19.2397351 11.6529234,19.740965 11.6492337,19.7676443 C11.6013623,20.0756859 11.8129044,20.3645222 12.1218921,20.4114475 C12.4263387,20.4647114 12.7187701,20.2476821 12.76579,19.9386944 C12.778562,19.8577105 12.8291769,19.5275307 12.904579,19.0061495 C18.5147966,22.3069063 33.3374078,32.8198675 41.3709934,38.6333018 C41.4473415,38.6884579 41.5328666,38.7215705 41.6201892,38.7344371 C41.4970104,38.8604541 41.3746831,38.9864711 41.2514096,39.1115421 C41.0334342,39.3340587 41.0371239,39.6918638 41.2597351,39.9107852 C41.3700473,40.0183538 41.5126206,40.0717124 41.6551939,40.0717124 C41.8013623,40.0717124 41.9485714,40.0156102 42.0589782,39.9024598 C46.3199054,35.5523179 56.2084579,25.2434248 56.0208515,23.4620624 C55.9950237,23.233018 55.8810218,23.0398297 55.6989026,22.9184484 C55.4377862,22.7492904 55.0882119,22.8155156 54.9153642,23.0775781 C54.8012677,23.2486282 54.793983,23.4583728 54.8748723,23.6312204 C54.4572753,24.9914853 48.3762914,31.7751183 42.2585052,38.0787133 C42.2345695,37.9380322 42.1573699,37.8073794 42.0331504,37.7173132 C41.0426112,37.0008515 19.889631,21.7071902 13.0747777,17.8068117 C13.5115799,14.6624409 14.2629518,8.7128666 14.3650331,4.34711447 C22.4584106,13.7418165 43.9084579,32.8198675 44.9329612,33.7295175 C45.1665468,33.9373699 45.5234059,33.9171239 45.7303122,33.6825922 C45.9381646,33.4490066 45.9170672,33.0921476 45.6834816,32.8852412 C45.4232167,32.6534532 21.5948344,11.4618732 14.3669253,2.59318827 C14.3457332,1.81239357 14.2924693,1.12450331 14.1976727,0.565279092 C14.1452602,0.257237465 13.8546263,0.05487228 13.5465847,0.10179754 C13.2384484,0.154210028 13.0315421,0.445789972 13.0830085,0.752980132 C13.0931315,0.810879849 13.1023084,0.869725639 13.1106339,0.930463576 C13.0416651,0.82743614 12.976386,0.728098392 12.9156481,0.632450331 C12.7491391,0.368495743 12.4006055,0.287606433 12.1366509,0.456764428 C11.8726963,0.623273415 11.7936045,0.972753075 11.960965,1.23576159 C12.2829139,1.74522233 12.7169726,2.3385052 13.2458278,3.00160833 C13.2963482,7.09697256 12.4971996,13.6535478 12.0106339,17.2329234 C11.7761968,17.1179754 11.5793188,17.0324503 11.4211353,16.9781457 C11.1305014,16.8742668 10.8049574,17.0315043 10.7028761,17.3267739 C10.5998486,17.6210974 10.7562346,17.9429518 11.0514096,18.0450331" id="Fill-1"></path>
                <path d="M73.5042479,30.028666 C73.1234532,29.0178808 71.5066131,24.8241249 69.7665941,21.7367077 C70.0939357,21.766982 70.2816367,21.7899716 70.2927058,21.7918638 C70.6089782,21.8341533 70.8867455,21.6125828 70.9253453,21.3016083 C70.9639451,20.9926206 70.7451183,20.7093661 70.436036,20.6698202 C70.3551466,20.6596973 69.8511731,20.5981079 69.0473888,20.5420057 C68.6426585,19.9193945 68.2417124,19.3868496 67.8535383,18.9969726 C67.6328193,18.7734153 67.2760549,18.7716178 67.0553359,18.9931883 C66.8327247,19.2121097 66.8309272,19.5699149 67.0516462,19.7914853 C67.2374551,19.9800378 67.4305487,20.2081362 67.6255345,20.4684011 C64.8811637,20.3746452 60.6303595,20.5061495 56.9276159,21.8084201 C56.7124787,21.2446547 56.4732167,20.7001892 56.2121003,20.1915799 C56.0686755,19.9120151 55.7209934,19.8044465 55.452403,19.9478713 C55.1747304,20.0904447 55.0643236,20.4307474 55.2077483,20.7084201 C55.4560927,21.1922422 55.6823936,21.712772 55.8883538,22.2562914 C55.7282781,22.4126774 55.6713245,22.656386 55.7614853,22.8753075 C55.8442668,23.0730369 56.0244939,23.1999054 56.2249669,23.2210028 C57.569527,27.3928098 57.8546736,32.3692526 57.8583633,32.4290445 L57.8914759,33.0278146 L58.4874078,32.9606433 C58.5149385,32.9569536 59.4089782,32.8576159 60.7609177,32.766509 C60.6506055,32.838316 60.5659319,32.9495743 60.5273321,33.0866604 C59.2507947,37.6557237 59.8982876,42.748912 60.4169253,45.4509934 C58.3918543,46.3283822 56.1403879,47.3933775 53.7859886,48.5752129 C46.4348061,44.9653737 10.4076537,20.4629139 2.51938505,14.4618732 C2.40169347,13.28193 2.3226017,12.5333018 2.30509934,12.369631 C2.27198675,12.0587512 1.98229896,11.8417219 1.68343425,11.8674551 C1.3725544,11.9005676 1.1481457,12.1791864 1.18125828,12.4891202 C1.18400189,12.5176916 1.22175024,12.8671712 1.28333964,13.4759697 C1.24473983,13.4419111 1.20982971,13.4106906 1.17851466,13.3821192 C1.12789972,13.1982971 0.986272469,13.0456008 0.78948912,12.9885525 C0.538401135,12.9167455 0.204531693,13.0280984 0.0767171239,13.2579943 C-0.161504257,13.6875118 0.214654683,14.025071 0.395827815,14.1878903 C0.432630085,14.2209082 0.794124882,14.4858089 1.42865658,14.9428571 C1.98050142,20.5842952 3.25060549,34.6188269 3.09790918,42.8464522 C2.77605487,42.6596973 2.45684957,42.4785241 2.1404825,42.3037843 C1.86280984,42.1483444 1.52345317,42.2523179 1.3725544,42.5236518 C1.22080416,42.7967833 1.31919584,43.1407758 1.59242195,43.2915799 C2.07520341,43.5592242 2.56536424,43.8405866 3.06016083,44.133964 C3.02799432,44.9304636 2.97747398,45.6533586 2.90755913,46.2870388 C2.87350047,46.596878 3.09790918,46.8765374 3.40784295,46.9105014 C3.7058562,46.9344371 3.99743614,46.7220435 4.03140019,46.4102176 C4.08475875,45.9200568 4.12799432,45.3802271 4.16016083,44.7980132 C12.4953548,49.930842 22.262526,58.1491958 28.4428477,63.6167455 C26.6843803,64.9466414 25.5642289,65.995175 25.3563765,66.5984863 C25.2551466,66.8936613 25.4115326,67.2155156 25.7068023,67.3167455 C26.0019773,67.4160833 26.3239262,67.2606433 26.4250615,66.9664144 C26.5694324,66.5469253 27.6151277,65.6272469 29.3064238,64.3838221 C30.1630937,65.1470199 30.9289404,65.8377483 31.603964,66.4513718 C27.6755818,71.5986755 18.5729328,83.784106 13.977947,92.0355724 C11.0341438,83.26386 9.15448439,73.107474 12.5054778,69.7787133 C15.9377389,66.3684957 20.6972469,64.0849574 24.0853264,62.7697256 C24.3769063,62.6566698 24.5212772,62.3292337 24.4081268,62.0385998 C24.2941249,61.7461684 23.9676348,61.6054872 23.6770009,61.7157994 C20.1876916,63.0704825 15.2792715,65.428666 11.7089782,68.9768212 C7.07927152,73.5752129 11.2451183,87.5858089 13.2471996,93.3887417 C11.7218448,96.3122044 10.9041533,98.5979186 11.3292242,99.6439924 C11.4183444,99.8637654 11.6298865,99.9971618 11.8524976,99.9971618 C11.923264,99.9971618 11.9959224,99.9833491 12.0648912,99.9548723 C12.354579,99.8381268 12.4935572,99.507947 12.3757711,99.2191107 C12.0984768,98.5359508 12.6536329,96.9377483 13.74228,94.7827815 C13.8169253,94.9868496 13.8942195,95.1986755 13.9511731,95.3508988 C14.0358467,95.577105 14.2510785,95.7177862 14.4800284,95.7177862 C14.5462535,95.7177862 14.6134248,95.7058657 14.6787039,95.6809839 C14.9701892,95.5716178 15.1183444,95.2460738 15.0088836,94.9535478 C14.8218448,94.4547777 14.6384011,93.9445601 14.4564711,93.4311258 C18.1897729,86.617597 26.1002744,75.5181646 32.4407663,67.214948 C33.7798392,68.4417219 34.5700946,69.1899716 34.6085052,69.226017 C34.7179659,69.3299905 34.857701,69.381457 34.9975307,69.381457 C35.1465374,69.381457 35.2963955,69.3226112 35.4068023,69.2058657 C35.6219395,68.9795648 35.6127625,68.6218543 35.3865563,68.407474 C35.3478619,68.3701041 34.5247777,67.5908231 33.1325355,66.3163671 C33.472649,65.8737938 33.8193851,65.4201514 34.1476727,64.9972564 C34.3389688,64.7508042 34.2948817,64.3958373 34.0484295,64.2044465 C33.8028288,64.013245 33.4459697,64.0564806 33.2556197,64.3037843 C33.0566604,64.5600757 32.7209934,64.9941343 32.2932734,65.5511826 C31.6835289,64.997351 30.9989499,64.3800378 30.2445506,63.7069063 C35.4206149,60.0419111 45.0175875,54.2166509 53.9202365,49.7395459 C54.6891107,50.0494797 55.198666,50.1570482 55.4009366,50.0182592 C55.6547682,49.8388836 55.7173037,49.4865658 55.5370766,49.2309366 C55.4800284,49.1481552 55.4027342,49.0856197 55.3181552,49.0451277 C57.1539167,48.1447493 58.9472942,47.310596 60.652403,46.573983 C60.7590255,47.035667 60.8364144,47.3161779 60.8510785,47.37228 C60.9355629,47.6729423 61.2502271,47.8477767 61.5462535,47.7658467 C61.8461589,47.6822138 62.0227909,47.371334 61.9400095,47.0705771 C61.9363198,47.0549669 61.8424693,46.7128666 61.7137086,46.1242195 C62.162526,45.9375591 62.6021665,45.7591296 63.0363198,45.5889309 C63.3249669,45.473983 63.4684863,45.1456954 63.3544844,44.8560076 C63.2385904,44.5644276 62.9074645,44.425544 62.6205203,44.5368023 C62.2544844,44.6821192 61.8773794,44.8348155 61.4892999,44.9957427 C61.0055724,42.3341533 60.4501325,37.5637654 61.616263,33.3901608 C61.6897729,33.123368 61.5611069,32.848439 61.3201419,32.7307474 C64.3164522,32.5523179 68.9922327,32.4631031 71.8579849,33.3477767 C76.1749196,33.8140965 86.8710407,37.7779565 86.97965,37.8184484 L87.4228855,36.7801325 L73.5042479,30.028666 Z" id="Fill-4"></path>
            </g>
        </g>
    </g>
</svg>